<?xml version="1.0" encoding="UTF-8" standalone="no"?>
<svg
   id="DESIGN"
   viewBox="0 0 570.24053 281.34299"
   version="1.1"
   sodipodi:docname="Ambys 2 SYMBOL.svg"
   width="570.24054"
   height="281.34299"
   inkscape:version="1.4 (86a8ad7, 2024-10-11)"
   xmlns:inkscape="http://www.inkscape.org/namespaces/inkscape"
   xmlns:sodipodi="http://sodipodi.sourceforge.net/DTD/sodipodi-0.dtd"
   xmlns="http://www.w3.org/2000/svg"
   xmlns:svg="http://www.w3.org/2000/svg">
  <sodipodi:namedview
     id="namedview26"
     pagecolor="#ffffff"
     bordercolor="#000000"
     borderopacity="0.25"
     inkscape:showpageshadow="2"
     inkscape:pageopacity="0.0"
     inkscape:pagecheckerboard="0"
     inkscape:deskcolor="#d1d1d1"
     inkscape:zoom="1.1802378"
     inkscape:cx="285.11203"
     inkscape:cy="141.07326"
     inkscape:window-width="2400"
     inkscape:window-height="1261"
     inkscape:window-x="-9"
     inkscape:window-y="-9"
     inkscape:window-maximized="1"
     inkscape:current-layer="DESIGN" />
  <defs
     id="defs9">
    <style
       id="style1">.cls-1{fill:#2e1d49;}.cls-2{fill:url(#linear-gradient);}.cls-3{fill:url(#radial-gradient);}.cls-4{fill:#fb9ad7;}.cls-5{fill:#fff;}.cls-6{fill:url(#linear-gradient-2);}</style>
    <linearGradient
       id="linear-gradient"
       x1="212.2915"
       y1="475.99112"
       x2="747.68451"
       y2="475.99112"
       gradientUnits="userSpaceOnUse"
       gradientTransform="translate(-194.86804,-339.31772)">
      <stop
         offset="0"
         stop-color="#fdb6e0"
         id="stop1" />
      <stop
         offset="0.25"
         stop-color="#bee8fe"
         id="stop2" />
      <stop
         offset="0.5"
         stop-color="#fff"
         id="stop3" />
      <stop
         offset="0.75"
         stop-color="#bee8fe"
         id="stop4" />
      <stop
         offset="1"
         stop-color="#fdb6e0"
         id="stop5" />
    </linearGradient>
    <radialGradient
       id="radial-gradient"
       cx="523.80518"
       cy="430.71948"
       fx="416.78305"
       fy="445.2121"
       r="181.11671"
       gradientUnits="userSpaceOnUse"
       gradientTransform="translate(-194.86804,-339.31772)">
      <stop
         offset="0.10209"
         stop-color="#fff"
         id="stop6" />
      <stop
         offset="0.78094"
         stop-color="#fdb6e0"
         id="stop7" />
    </radialGradient>
    <linearGradient
       id="linear-gradient-2"
       x1="463.67401"
       y1="559.49866"
       x2="496.12662"
       y2="559.49866"
       gradientUnits="userSpaceOnUse"
       gradientTransform="translate(-194.86804,-339.31772)">
      <stop
         offset="0.17318"
         stop-color="#fdb6e0"
         id="stop8" />
      <stop
         offset="1"
         stop-color="#fff"
         id="stop9" />
    </linearGradient>
  </defs>
  <path
     class="cls-1"
     d="m 523.66146,168.80874 a 104.4647,104.4647 0 0 0 14.57479,-6.33052 71.8303,71.8303 0 0 0 19.70162,-15.06518 49.64632,49.64632 0 0 0 10.52925,-17.32748 30.20739,30.20739 0 0 0 -0.0438,-20.517 25.11649,25.11649 0 0 0 -29.38707,-16.136749 37.5694,37.5694 0 0 0 -8.669,3.03638 106.66049,106.66049 0 0 0 -9.55981,5.375669 q -4.79288,2.98 -9.73409,5.464 c -0.10213,-0.15 -0.20669,-0.2991 -0.31369,-0.44581 a 20.29541,20.29541 0 0 0 -4.59429,-4.58132 24.72948,24.72948 0 0 0 5.42755,-4.861779 20.86889,20.86889 0 0 0 4.83584,-15.43966 c 1.43957,-0.92242 2.88318,-1.89916 4.326,-2.948 a 61.33377,61.33377 0 0 0 14.67044,-14.15491 c 5.80689,-8.23211 8.42745,-16.46179 8.01163,-25.1543 a 32.3952,32.3952 0 0 0 -1.66733,-8.882995 25.84,25.84 0 0 0 -36.70487,-15.03763 54.60576,54.60576 0 0 0 -12.59376,9.2283 q -3.24145,3.008 -6.45616,6.04763 -1.05414,0.99335 -2.1099,1.98508 a 22.1897,22.1897 0 0 0 -16.18863,-3.60135 24.81027,24.81027 0 0 0 -6.26,1.86106 31.43342,31.43342 0 0 0 -9.06537,6.112475 73.30623,73.30623 0 0 0 -8.32857,9.649 q -1.17816,1.577 -2.345,3.16283 -0.26506,0.35868 -0.52849,0.71573 a 22.64967,22.64967 0 0 0 -5.83446,-0.60874 25.3417,25.3417 0 0 0 -12.413,3.75617 40.535,40.535 0 0 0 -7.20775,5.53859 c -2.25277,-2.73616 -4.57281,-5.436 -7.0347,-8.05135 A 148.0816,148.0816 0 0 0 393.1611,37.458991 165.68469,165.68469 0 0 0 332.41728,7.0271059 a 219.69344,219.69344 0 0 0 -36.87914,-6.52749 110.27444,110.27444 0 0 0 -19.18853,-0.15563 217.41663,217.41663 0 0 0 -28.09341,4.142 c -20.10285,4.36814 -37.59243,11.1355601 -53.469,20.6888901 a 158.18723,158.18723 0 0 0 -40.25107,34.457505 38.85561,38.85561 0 0 0 -7.40857,-5.6152 24.50207,24.50207 0 0 0 -12.99581,-3.67754 22.21558,22.21558 0 0 0 -5.04577,0.62333 c -1.59357,-2.13665 -3.19282,-4.26844 -4.82368,-6.37672 -3.11176,-4.02446 -6.6126,-8.231295 -12.148,-11.552995 a 24.95254,24.95254 0 0 0 -13.519436,-3.84209 21.74,21.74 0 0 0 -12.26305,3.88667 l -0.3988,-0.37448 c -3.3371,-3.13608 -6.675,-6.27135 -10.06074,-9.35393 a 46.81392,46.81392 0 0 0 -11.16717,-7.78144 25.68923,25.68923 0 0 0 -36.02885,14.76365 34.35661,34.35661 0 0 0 0.71167,24.585275 48.273,48.273 0 0 0 12.94718,18.3885 91.96535,91.96535 0 0 0 11.48491,8.69657 21.72932,21.72932 0 0 0 8.22319,18.767839 c 0.65413,0.53254 1.31231,1.01888 1.96319,1.46307 a 20.02674,20.02674 0 0 0 -4.90068,5.04821 q -1.076,-0.54226 -2.16665,-1.117 c -2.268,-1.19478 -4.60077,-2.59057 -7.07056,-4.069 -1.53035,-0.91594 -3.0607,-1.83107 -4.71588,-2.784299 a 48.64229,48.64229 0 0 0 -12.84342,-5.648 25.458,25.458 0 0 0 -31.58527009,19.484369 c -1.49063,6.59557 -0.67683,13.46836 2.41872999,20.42869 a 53.649,53.649 0 0 0 10.6727201,15.49073 75.20393,75.20393 0 0 0 21.04955,14.85281 103.66669,103.66669 0 0 0 11.73781,4.87313 c 0.094,0.59009 0.20669,1.14127 0.32665,1.64544 a 20.9968,20.9968 0 0 0 5.41459,9.76408 85.78585,85.78585 0 0 0 -8.7371,-1.99561 39.36729,39.36729 0 0 0 -13.27464,-0.21075 25.51389,25.51389 0 0 0 -21.5230001,21.12011 c -1.117,6.27378 0.0146,12.67888 3.3662801,19.04182 3.65079,6.92386 9.33529,12.50541 17.37773,17.06242 9.15048,5.18438 19.56058,7.99218 31.81958,8.58227 a 22.12259,22.12259 0 0 0 16.70253,11.41277 27.37746,27.37746 0 0 0 4.01068,0.261 40.4251,40.4251 0 0 0 10.18557,-1.39255 c 3.18228,3.192 8.268576,6.24946 16.141606,6.444 q 0.24561,0.005 0.48148,0.005 a 20.80591,20.80591 0 0 0 3.44409,-0.29829 44.64281,44.64281 0 0 0 8.03758,-1.92752 114.86134,114.86134 0 0 0 11.9753,-4.96715 l 1.01645,-0.46851 a 108.22511,108.22511 0 0 0 16.1407,-9.07023 132.83049,132.83049 0 0 0 26.72852,18.2118 c 9.23153,4.925 19.37172,8.66008 32.88142,12.10661 14.129,3.6054 29.704,5.70639 47.61427,6.42293 3.69213,0.14914 7.38264,0.3226 11.07314,0.49606 l 1.17046,0.0535 a 113.04044,113.04044 0 0 0 12.70562,-0.0178 44.77129,44.77129 0 0 1 6.75932,0.0113 c 2.03938,0.17184 4.14766,0.25776 6.43751,0.25776 1.56845,0 3.22281,-0.0405 4.998,-0.12 5.92119,-0.26911 12.39356,-0.61927 20.363,-1.10075 4.29681,-0.25938 8.51257,-0.52686 12.85963,-0.971 a 195.14945,195.14945 0 0 0 22.87985,-3.82263 170.905,170.905 0 0 0 28.38683,-8.80113 140.14223,140.14223 0 0 0 27.48711,-15.56449 96.6108,96.6108 0 0 0 8.89728,-7.18526 c 9.67593,6.64867 19.86718,11.014 28.79972,14.42848 a 39.11493,39.11493 0 0 0 8.91379,2.101 23.45464,23.45464 0 0 0 3.23092,0.22209 24.88637,24.88637 0 0 0 8.21914,-1.425 21.60975,21.60975 0 0 0 8.13241,-5.032 q 1.58181,0.42069 3.24712,0.76355 a 31.49945,31.49945 0 0 0 11.07477,0.32585 c 7.45558,-1.13965 13.36218,-5.24112 16.5858,-11.39818 1.472,-0.0584 2.96667,-0.15563 4.47514,-0.30153 a 69.7443,69.7443 0 0 0 23.4059,-6.23649 48.5239,48.5239 0 0 0 16.512,-12.199 c 6.02089,-6.98222 8.85219,-14.7134 8.4153,-22.97307 a 25.08862,25.08862 0 0 0 -14.7134,-21.84313 30.20514,30.20514 0 0 0 -14.963,-2.64407 67.02954,67.02954 0 0 0 -13.72613,2.52573 c -0.15158,0.0438 -0.30315,0.0875 -0.45473,0.12969 a 20.31269,20.31269 0 0 0 5.4462,-9.79326 q 0.18852,-0.80735 0.3097,-1.61953 z"
     id="path9" />
  <path
     class="cls-2"
     d="m 497.23453,159.21328 a 3.8802,3.8802 0 0 0 1.93954,0.83972 20.04577,20.04577 0 0 1 4.249,1.706 6.94408,6.94408 0 0 1 2.0216,1.60216 c 1.68578,1.98914 1.22054,4.35615 -1.17483,5.39775 a 13.39979,13.39979 0 0 1 -6.65709,0.83549 c -3.97707,-0.36 -7.89673,-1.12113 -11.84992,-1.64354 -1.80932,-0.2391 -3.63623,-0.34524 -5.65632,-0.5301 a 3.85859,3.85859 0 0 0 1.69436,1.39415 15.05152,15.05152 0 0 1 3.69969,3.31443 c 1.84952,2.412 1.1011,5.02225 -1.75889,6.06582 a 17.67049,17.67049 0 0 1 -7.89629,0.62723 221.1558,221.1558 0 0 1 -27.97324,-4.30077 80.82869,80.82869 0 0 1 -16.50544,-5.264 31.04515,31.04515 0 0 1 -9.00421,-6.16182 14.375,14.375 0 0 1 -3.99374,-13.74738 22.33083,22.33083 0 0 1 8.18591,-13.54677 71.11256,71.11256 0 0 1 22.86506,-11.8861 10.82284,10.82284 0 0 1 4.1276,-0.57638 c 2.86661,0.23643 4.06269,2.38729 2.72743,4.93022 a 14.22053,14.22053 0 0 1 -1.99085,2.73584 c -0.65749,0.74775 -1.27994,1.529 -1.87525,2.3273 -0.267,0.358 -0.62163,0.78029 -0.30326,1.26476 0.298,0.45338 0.8204,0.35143 1.27765,0.35263 a 10.70921,10.70921 0 0 0 3.12061,-0.61 61.80969,61.80969 0 0 0 16.06022,-7.89241 c 4.33354,-2.85224 8.635,-5.75394 13.18736,-8.25633 a 26.43315,26.43315 0 0 1 5.34366,-2.18538 7.841,7.841 0 0 1 2.76311,-0.29763 3.29533,3.29533 0 0 1 3.20369,4.41029 12.35419,12.35419 0 0 1 -1.84845,3.738 c -1.13946,1.71782 -2.32584,3.408 -3.38317,5.17514 -0.44824,0.74908 -1.25778,1.62619 -0.58913,2.54686 0.62728,0.86367 1.7277,0.54019 2.6211,0.45783 a 27.83484,27.83484 0 0 0 5.82679,-1.31381 133.68338,133.68338 0 0 0 30.32325,-14.07734 88.99716,88.99716 0 0 1 7.99069,-4.50761 20.535,20.535 0 0 1 4.68894,-1.66361 7.84385,7.84385 0 0 1 9.38325,5.144 12.732,12.732 0 0 1 -0.0908,8.79605 32.71448,32.71448 0 0 1 -6.96766,11.29981 54.93427,54.93427 0 0 1 -15.02282,11.4055 102.85259,102.85259 0 0 1 -18.89968,7.458 c -3.94476,1.19917 -7.89035,2.39566 -11.82653,3.62234 a 3.54589,3.54589 0 0 0 -2.03291,1.01366 z m -408.960996,9.7177 a 13.22965,13.22965 0 0 0 -3.29929,2.86578 c -2.23494,2.87918 -1.39079,5.55954 2.08537,6.58084 a 14.27628,14.27628 0 0 0 3.73894,0.54912 70.44088,70.44088 0 0 0 9.337366,-0.73067 184.34459,184.34459 0 0 0 28.6113,-5.29378 56.81253,56.81253 0 0 0 12.26353,-4.7282 26.05383,26.05383 0 0 0 7.16451,-5.34105 14.34969,14.34969 0 0 0 3.925,-12.08595 c -1.09016,-7.65225 -5.299,-13.22149 -11.54846,-17.37545 a 95.10113,95.10113 0 0 0 -12.9845,-7.00869 40.56717,40.56717 0 0 0 -6.5469,-2.40982 12.52716,12.52716 0 0 0 -4.326,-0.60688 c -2.78535,0.24719 -3.95794,2.27434 -2.7932,4.79937 a 9.86844,9.86844 0 0 0 1.469,2.127 c 0.89152,1.07352 1.81729,2.12837 2.60294,3.27708 0.68425,1.00047 0.40453,1.40431 -0.84379,1.41221 a 12.418,12.418 0 0 1 -3.89959,-0.7698 57.65347,57.65347 0 0 1 -12.28417,-5.687 c -4.827556,-2.94483 -9.404516,-6.28226 -14.300176,-9.11956 a 34.60036,34.60036 0 0 0 -6.84557,-3.22519 9.04708,9.04708 0 0 0 -3.74015,-0.43149 3.16089,3.16089 0 0 0 -3.0045,3.71 6.57016,6.57016 0 0 0 0.70907,2.27321 22.45571,22.45571 0 0 0 2.10683,3.38287 27.92539,27.92539 0 0 1 2.7869,4.36851 c 0.94206,1.9803 0.48207,2.65848 -1.75136,2.61923 a 16.33134,16.33134 0 0 1 -4.116,-0.72143 122.32467,122.32467 0 0 1 -23.97358,-9.77462 c -4.18206,-2.20249 -8.16207,-4.75142 -12.25385,-7.108 a 33.71993,33.71993 0 0 0 -8.49376,-3.90867 c -5.02718,-1.26062 -9.204,1.37339 -10.34461,6.41937 a 14.81269,14.81269 0 0 0 1.34259,9.501 36.05442,36.05442 0 0 0 7.253,10.43452 58.16,58.16 0 0 0 16.27642,11.37351 117.49077,117.49077 0 0 0 17.92966,6.68372 c 3.49789,1.07025 7.00447,2.11253 10.4946,3.2074 a 3.73075,3.73075 0 0 1 2.17064,1.17994 c -1.24549,0.40268 -2.31088,0.74024 -3.37161,1.09182 a 12.11261,12.11261 0 0 0 -3.43961,1.5612 c -1.47384,1.07895 -3.00326,2.25193 -2.49893,4.36235 0.4871,2.03833 2.24432,2.60387 4.08629,2.98283 2.93526,0.60394 5.834,0.17356 8.72584,-0.247 4.33139,-0.62991 8.63466,-1.4758 13.17566,-1.30531 -0.53133,0.37279 -1.05369,0.75931 -1.59589,1.11564 z m 19.964916,-68.87215 c -0.8253,0.17451 -1.65492,0.331 -2.47515,0.52679 -2.6787,0.63964 -5.238,1.51625 -7.240996,3.55152 -2.53467,2.57558 -2.30787,5.308 0.65213,7.38134 a 12.57207,12.57207 0 0 0 3.032296,1.50124 c 1.25261,0.44519 2.5126,0.883 3.795,1.22907 a 185.66665,185.66665 0 0 0 37.25886,6.53708 50.183,50.183 0 0 0 10.523,-0.518 17.09329,17.09329 0 0 0 5.26788,-1.79219 10.59372,10.59372 0 0 0 5.80693,-11.61309 22.71866,22.71866 0 0 0 -2.93332,-7.586719 c -2.91415,-5.08555 -6.46333,-9.74791 -9.76641,-14.57408 a 116.16321,116.16321 0 0 0 -7.04772,-9.67068 25.86549,25.86549 0 0 0 -6.694,-5.91565 8.03888,8.03888 0 0 0 -4.11891,-1.34627 3.45788,3.45788 0 0 0 -3.71881,2.91274 6.56374,6.56374 0 0 0 -0.11644,2.57341 12.96784,12.96784 0 0 1 0.1612,1.785 c 0.0127,0.65778 0.0917,1.40431 -0.60954,1.78125 -0.75164,0.404 -1.42463,8.8e-4 -2.03,-0.42523 a 16.924,16.924 0 0 1 -2.99175,-2.62917 c -2.06551,-2.34576 -4.13089,-4.6926 -6.00932,-7.19455 -2.83508,-3.77617 -5.62223,-7.58923 -8.51039,-11.32427 -2.11475,-2.73487 -4.28271,-5.44239 -7.32144,-7.26546 a 8.08242,8.08242 0 0 0 -4.313786,-1.36257 3.88993,3.88993 0 0 0 -4.07009,3.79623 11.94911,11.94911 0 0 0 0.95273,4.85811 c 0.5861,1.697 1.20393,3.38308 1.78145,5.0829 a 6.99316,6.99316 0 0 1 0.3574,1.54785 c 0.077,0.78488 -0.34049,1.13511 -1.1003,0.91014 a 11.57746,11.57746 0 0 1 -1.85549,-0.7215 37.36493,37.36493 0 0 1 -5.27161,-3.22148 137.6011,137.6011 0 0 1 -13.37972,-11.34751 c -4.02513,-3.77617 -8.03377,-7.571 -12.11472,-11.286165 a 29.37558,29.37558 0 0 0 -6.9718,-4.9548 c -5.15536,-2.47308 -10.15894,-0.41941 -12.08935,4.94849 a 16.86811,16.86811 0 0 0 0.51881,12.272835 30.91828,30.91828 0 0 0 8.33716,11.78774 75.85425,75.85425 0 0 0 13.14012,9.35735 q 7.46366,4.22886 14.93,8.453 c 0.49147,0.27962 1.09133,0.47516 1.38564,1.24783 -0.75389,-0.0758 -1.40013,-0.16708 -2.04937,-0.20129 a 14.58527,14.58527 0 0 0 -7.58652,1.24521 c -3.18019,1.62655 -3.455,4.61652 -0.69768,6.86283 a 19.42809,19.42809 0 0 0 4.69349,2.60767 77.79514,77.79514 0 0 0 10.76026,3.65 c 4.88086,1.3096 9.77268,2.57924 14.644736,3.92073 a 19.014,19.014 0 0 1 5.08345,2.16816 z M 488.35356,78.013871 q 3.36018,-1.96064 6.7564,-3.85948 a 148.44923,148.44923 0 0 0 15.39425,-9.22124 c 4.00031,-2.90821 7.80745,-6.036 10.67728,-10.10414 3.004,-4.25845 5.10253,-8.876 4.84357,-14.27588 a 14.88024,14.88024 0 0 0 -0.75963,-4.104465 c -1.86746,-5.49381 -7.18174,-7.69413 -12.347,-5.08682 a 38.23809,38.23809 0 0 0 -8.59223,6.445095 c -4.77774,4.43293 -9.48413,8.943 -14.279,13.35713 a 91.26322,91.26322 0 0 1 -10.24522,8.25781 23.86323,23.86323 0 0 1 -6.31542,3.36687 c -0.96027,0.29736 -1.22985,0.0383 -1.09223,-0.95917 a 21.19077,21.19077 0 0 1 1.31625,-4.386 23.73691,23.73691 0 0 0 1.73408,-5.91829 c 0.31934,-3.38977 -1.73569,-5.34663 -5.09479,-4.83365 a 7.699,7.699 0 0 0 -1.89329,0.593 14.38251,14.38251 0 0 0 -4.089,2.81327 56.94763,56.94763 0 0 0 -6.34544,7.4224 c -3.54423,4.74 -6.95928,9.58023 -10.84224,14.05836 a 26.13082,26.13082 0 0 1 -4.98977,4.85577 c -1.63087,1.09241 -2.4367,0.63425 -2.47135,-1.33769 -0.0222,-1.26252 0.11184,-2.53133 0.0341,-3.7886 -0.14512,-2.34937 -1.58408,-3.59072 -3.94836,-3.52968 a 8.02967,8.02967 0 0 0 -3.93277,1.2989 30.46878,30.46878 0 0 0 -7.84142,7.30915 c -3.35895,4.13764 -6.0686,8.74086 -9.2275,13.022 -2.25313,3.05362 -4.30942,6.23192 -6.27591,9.47124 a 23.01967,23.01967 0 0 0 -2.88859,6.764999 c -0.8089,3.52232 -0.51212,6.898 1.80358,9.85139 a 12.5524,12.5524 0 0 0 6.45377,4.13077 34.00853,34.00853 0 0 0 11.24905,1.26577 124.87213,124.87213 0 0 0 14.48042,-1.41441 205.021,205.021 0 0 0 26.106,-5.66826 21.73719,21.73719 0 0 0 5.13265,-2.17669 c 3.038,-1.81575 3.41918,-5.0076 0.887,-7.51552 a 11.02352,11.02352 0 0 0 -1.719,-1.35025 17.126,17.126 0 0 0 -5.93156,-2.26162 c -0.75209,-0.16106 -1.4992,-0.34551 -2.58709,-0.597819 a 15.48259,15.48259 0 0 1 4.01752,-1.932 c 4.78348,-1.65948 9.73188,-2.72152 14.61136,-4.0346 a 71.28859,71.28859 0 0 0 14.81965,-5.27448 9.92107,9.92107 0 0 0 3.1918,-2.34881 3.20817,3.20817 0 0 0 -0.0658,-4.665 5.8864,5.8864 0 0 0 -2.647,-1.715 16.97523,16.97523 0 0 0 -6.88915,-0.77645 c -0.49814,0.0475 -1.01172,0.33019 -1.54173,-0.0381 0.2615,-0.61912 0.85457,-0.82442 1.34374,-1.10983 z m -28.094,150.243999 a 107.02107,107.02107 0 0 1 12.29889,5.21778 56.91167,56.91167 0 0 0 12.21278,4.2798 14.08186,14.08186 0 0 0 4.96082,0.17728 c 1.78027,-0.2726 3.35222,-0.987 4.03525,-2.83352 0.70959,-1.91853 -0.0365,-3.5166 -1.27805,-4.94381 a 13.2758,13.2758 0 0 0 -3.801,-2.87266 3.89952,3.89952 0 0 1 -1.80635,-1.26323 c 2.01638,0 3.78223,-0.0442 5.54521,0.008 6.44257,0.19045 12.87066,0.70847 19.33141,0.0856 a 52.89629,52.89629 0 0 0 17.65219,-4.6583 31.58008,31.58008 0 0 0 10.735,-7.81091 c 2.63947,-3.06091 4.43081,-6.5027 4.21074,-10.6764 a 7.59587,7.59587 0 0 0 -4.6102,-6.93023 13.02147,13.02147 0 0 0 -6.43077,-1.08385 49.98,49.98 0 0 0 -10.18089,1.90255 c -7.29031,2.07661 -14.483,4.50191 -21.9258,6.0336 a 143.77379,143.77379 0 0 1 -16.54822,2.56652 11.80248,11.80248 0 0 1 -4.16016,-0.30111 c -1.40748,-0.3844 -1.72043,-0.96962 -1.28608,-2.34094 a 12.87726,12.87726 0 0 1 1.748,-3.124 13.07758,13.07758 0 0 0 1.67224,-2.93966 3.85746,3.85746 0 0 0 -2.35882,-5.18908 10.43507,10.43507 0 0 0 -4.70576,-0.59131 58.17653,58.17653 0 0 0 -15.44561,3.81917 59.70075,59.70075 0 0 1 -8.3166,2.78479 c -0.39381,0.0831 -0.85277,0.48157 -1.31981,-0.15033 a 14.90393,14.90393 0 0 1 2.43621,-2.818 23.66166,23.66166 0 0 0 3.18614,-3.82746 c 1.76751,-2.80964 1.02026,-5.32843 -1.9619,-6.74115 a 16.28514,16.28514 0 0 0 -4.80327,-1.26208 c -4.87627,-0.67818 -9.6754,0.0528 -14.49592,0.64384 a 31.1982,31.1982 0 0 0 -11.35392,3.50669 c -8.391,4.58387 -12.05664,13.41256 -9.21459,22.558 2.1926,7.05542 6.64076,12.4847 12.34708,17.00654 8.76777,6.94772 18.80905,11.48282 29.15612,15.43908 a 22.69926,22.69926 0 0 0 5.05784,1.1108 7.099,7.099 0 0 0 3.33751,-0.39566 3.73916,3.73916 0 0 0 2.48314,-4.61048 9.783,9.783 0 0 0 -2.63786,-4.39548 67.16868,67.16868 0 0 0 -7.31175,-6.19784 14.53261,14.53261 0 0 1 3.54671,0.81748 z M 80.844104,227.71499 a 10.72988,10.72988 0 0 0 -3.27246,2.57554 4.80194,4.80194 0 0 0 -1.02268,4.84708 c 0.66852,1.80328 2.21974,2.56628 4.03525,2.82894 a 11.56541,11.56541 0 0 0 1.59214,0.0799 26.30421,26.30421 0 0 0 8.93561,-1.86019 c 3.20092,-1.13511 6.27457,-2.56681 9.349676,-3.999 a 67.72987,67.72987 0 0 1 10.72991,-4.287 1.52062,1.52062 0 0 1 1.592,0.0882 c -0.93575,0.74769 -1.77007,1.39 -2.57768,2.06429 -2.08965,1.7448 -4.30862,3.36382 -5.68844,5.8071 -0.91818,1.6258 -1.53832,3.31577 -0.52789,5.0941 1.06158,1.86848 2.94178,2.10089 4.85337,2.14767 a 6.41758,6.41758 0 0 0 0.9887,-0.118 27.3502,27.3502 0 0 0 5.03389,-1.21372 110.51628,110.51628 0 0 0 11.20549,-4.72934 86.34116,86.34116 0 0 0 16.62636,-9.81989 c 5.19364,-3.99169 9.57341,-8.66446 12.17994,-14.76088 2.74405,-6.418 2.91892,-12.79352 -0.84014,-18.92961 -2.71133,-4.42579 -6.99712,-6.83062 -11.66257,-8.59659 -3.763,-1.42442 -7.78894,-1.66164 -11.74754,-2.09748 a 37.1046,37.1046 0 0 0 -9.9422,-0.051 13.1282,13.1282 0 0 0 -5.63481,1.836 3.91647,3.91647 0 0 0 -1.415,5.24617 12.62493,12.62493 0 0 0 2.3137,3.23069 c 1.044,1.1163 2.08022,2.24089 3.08218,3.39462 0.26868,0.3094 0.75978,0.60652 0.36887,1.32839 -0.721,-0.17768 -1.49612,-0.3152 -2.23516,-0.561 q -3.12239,-1.03836 -6.21928,-2.15293 a 67.93531,67.93531 0 0 0 -12.817566,-3.70841 19.735,19.735 0 0 0 -6.53954,-0.2746 c -4.06661,0.73225 -5.37686,3.593 -3.2078,7.15137 0.58827,0.965 1.23693,1.89353 1.81472,2.86452 1.74748,2.93678 1.163,4.08052 -2.22383,4.33115 a 33.09939,33.09939 0 0 1 -6.95243,-0.48605 165.0934,165.0934 0 0 1 -26.44334,-5.91217 107.43715,107.43715 0 0 0 -13.87278,-3.67922 22.71227,22.71227 0 0 0 -7.5347,-0.19926 8.24247,8.24247 0 0 0 -7.19873,6.97769 12.05413,12.05413 0 0 0 1.62422,7.85541 c 2.38232,4.51882 6.19672,7.5597 10.55093,10.02675 7.5316,4.26737 15.734,5.95983 24.27543,6.348 6.18927,0.28133 12.35618,-0.44726 18.53974,-0.44019 a 7.84758,7.84758 0 0 1 2.74717,0.24356 c -1.22701,0.64481 -2.05512,1.0587 -2.86278,1.50941 z"
     id="path10"
     style="fill:url(#linear-gradient)" />
  <path
     class="cls-3"
     d="m 83.936104,214.73079 a 3.97936,3.97936 0 0 1 2.56483,-0.32816 83.38278,83.38278 0 0 0 19.820166,-1.77614 88.04592,88.04592 0 0 0 24.09313,-9.35874 c 2.03534,-1.12858 4.05664,-2.28679 6.0396,-3.50441 2.21433,-1.35963 2.19723,-1.39788 1.26557,-3.7339 a 92.34917,92.34917 0 0 1 -5.16835,-18.40922 70.51943,70.51943 0 0 1 -0.0515,-22.63119 c 0.52789,-3.55905 0.57267,-3.48276 -3.05148,-2.95845 a 133.89279,133.89279 0 0 1 -25.85645,1.06131 c -10.728126,-0.52923 -21.051926,-2.89308 -31.247346,-6.04872 a 38.39476,38.39476 0 0 1 -11.694,-5.8983 c -0.0903,-0.0673 -0.11314,-0.22507 -0.21461,-0.441 0.58039,-0.49709 1.11336,-0.0274 1.59986,0.14746 a 104.68223,104.68223 0 0 0 45.894136,6.13078 96.48705,96.48705 0 0 0 25.236,-5.63732 4.30864,4.30864 0 0 0 3.02524,-3.27272 294.76162,294.76162 0 0 1 9.598,-29.80929 c 0.35884,-0.93039 0.80293,-1.828 1.16012,-2.759 0.56485,-1.47221 0.47845,-1.67691 -1.019,-2.14664 -4.00137,-1.25517 -7.95136,-2.646 -11.83764,-4.226749 a 147.50275,147.50275 0 0 1 -23.099,-12.16858 174.5016,174.5016 0 0 1 -22.764086,-17.152 56.74067,56.74067 0 0 1 -6.94947,-7.14528 4.04556,4.04556 0 0 1 -1.06089,-1.83576 c 0.519,-0.44685 0.81054,-0.0456 1.07453,0.20105 7.94852,7.42676 17.17194,12.95594 26.692586,18.06868 a 207.58792,207.58792 0 0 0 21.47069,10.1136 96.10565,96.10565 0 0 0 19.536,5.59168 c 2.57948,0.43532 2.88045,0.34909 4.12075,-1.9669 a 131.06215,131.06215 0 0 1 13.09929,-20.00524 139.89026,139.89026 0 0 1 37.56127,-32.72213 c 14.97968,-9.014545 31.1483,-14.888995 48.18275,-18.590775 a 198.90473,198.90473 0 0 1 25.83184,-3.80351 92.40065,92.40065 0 0 1 16.14245,0.14045 201.13427,201.13427 0 0 1 33.944,5.99915 147.66711,147.66711 0 0 1 54.40451,27.221185 131.18255,131.18255 0 0 1 13.72561,12.4674 135.15514,135.15514 0 0 1 20.32247,27.79046 c 2.51223,4.59038 1.7757,4.001 6.57,3.14579 a 100.29407,100.29407 0 0 0 23.12485,-7.43667 254.74482,254.74482 0 0 0 26.89354,-13.99313 112.44493,112.44493 0 0 0 15.84453,-11.75433 c 0.33723,-0.29152 0.59531,-0.74636 1.1551,-0.68771 0.41739,0.44344 -0.016,0.7225 -0.20692,1.02623 a 20.01211,20.01211 0 0 1 -2.43158,2.90033 133.52678,133.52678 0 0 1 -20.68459,17.50057 158.43121,158.43121 0 0 1 -25.09606,14.72844 119.9907,119.9907 0 0 1 -16.55846,6.379439 c -0.44643,0.1316 -0.89043,0.274 -1.32819,0.43171 a 0.85569,0.85569 0 0 0 -0.54955,1.26879 c 0.12022,0.31011 0.23547,0.62231 0.36237,0.92966 a 272.45276,272.45276 0 0 1 10.67166,32.38929 4.22354,4.22354 0 0 0 2.915,3.14948 94.51013,94.51013 0 0 0 25.02706,5.6524 105.30172,105.30172 0 0 0 43.27538,-5.08165 23.87662,23.87662 0 0 1 3.77215,-1.27773 c 0.11082,-0.0178 0.24025,0.0796 0.36652,0.12553 0.19264,0.403 -0.0963,0.59463 -0.36067,0.784 a 39.3757,39.3757 0 0 1 -10.84116,5.42254 124.68116,124.68116 0 0 1 -27.05231,5.87354 119.036,119.036 0 0 1 -19.9234,0.265 c -4.04851,-0.30569 -8.07894,-0.663 -12.09017,-1.28433 -1.77643,-0.27516 -1.9733,-0.0456 -1.65552,1.8036 a 72.94593,72.94593 0 0 1 -2.26443,34.51734 c -0.85964,2.86886 -1.85908,5.68927 -2.94527,8.48054 -0.63717,1.6372 -0.59331,1.86234 0.86714,2.78172 11.668,7.34484 24.06908,12.79937 37.89284,14.50294 a 87.47226,87.47226 0 0 0 12.94712,0.513 5.49139,5.49139 0 0 1 2.45819,0.23811 1.76435,1.76435 0 0 1 -1.7316,0.9109 c -5.43093,0.43191 -10.83288,1.228 -16.29466,1.27585 -7.34748,0.0643 -14.57346,-1.07664 -21.80524,-2.16205 a 90.23645,90.23645 0 0 1 -18.68444,-4.92168 c -1.58462,-0.6017 -1.74592,-0.55989 -2.68961,1.03019 a 90.31243,90.31243 0 0 1 -8.60179,12.22389 80.458,80.458 0 0 1 -14.91808,13.76835 123.35041,123.35041 0 0 1 -24.07351,13.67474 154.436,154.436 0 0 1 -25.51784,7.89068 178.35376,178.35376 0 0 1 -20.84545,3.49155 c -4.03141,0.41281 -8.08079,0.6688 -12.12711,0.91256 -6.70021,0.40375 -13.40262,0.78273 -20.108,1.08658 a 70.61343,70.61343 0 0 1 -9.172,-0.093 62.55588,62.55588 0 0 0 -9.372,-0.0364 95.75035,95.75035 0 0 1 -10.75717,0 c -4.11637,-0.1922 -8.23418,-0.38908 -12.3525,-0.554 -14.85317,-0.59453 -29.5677,-2.2136 -44.005,-5.89706 -10.01755,-2.5557 -19.8305,-5.70983 -28.98471,-10.59551 -9.9577,-5.31461 -19.35313,-11.46537 -27.28283,-19.60031 a 80.86416,80.86416 0 0 1 -11.761,-15.56744 c -0.13482,-0.22938 -0.25333,-0.4685 -0.39166,-0.69564 -0.96138,-1.57926 -1.14627,-1.67488 -2.88277,-0.9881 a 91.93335,91.93335 0 0 1 -21.83925,5.38548 133.07069,133.07069 0 0 1 -17.85772,1.66147 c -4.666616,-0.0107 -9.281936,-0.60048 -13.914996,-1.00374 -0.861,-0.075 -1.72658,-0.11973 -2.58063,-0.24346 -0.67699,-0.0981 -1.44343,-0.0621 -1.99522,-0.85141 z"
     id="path11"
     style="fill:url(#radial-gradient)" />
  <path
     class="cls-4"
     d="m 388.13482,158.77852 a 30.105,30.105 0 0 1 7.87977,0.84282 14.07982,14.07982 0 0 1 5.07237,2.24363 4.57254,4.57254 0 0 1 1.01689,6.94818 13.6659,13.6659 0 0 1 -5.2035,3.92493 62.11781,62.11781 0 0 1 -13.47611,4.21356 97.4283,97.4283 0 0 1 -13.41076,1.85457 38.39675,38.39675 0 0 1 -11.0877,-0.87535 12.093,12.093 0 0 1 -3.89417,-1.48815 c -3.03016,-1.905 -3.581,-5.03209 -1.36767,-7.83626 a 13.76954,13.76954 0 0 1 4.17468,-3.3445 47.208,47.208 0 0 1 17.76667,-5.55408 90.69894,90.69894 0 0 1 12.52953,-0.92935 z"
     id="path12" />
  <path
     class="cls-4"
     d="m 182.71137,158.74441 c 8.769,0.44592 17.514,1.04579 25.74325,4.55554 a 21.92124,21.92124 0 0 1 7.55482,4.71273 c 3.022,3.15318 2.31231,7.04845 -1.67146,8.89586 a 23.49342,23.49342 0 0 1 -6.74638,1.64672 49.40341,49.40341 0 0 1 -13.89233,-0.439 77.41014,77.41014 0 0 1 -17.96969,-4.34619 27.75182,27.75182 0 0 1 -5.1392,-2.62251 9.072,9.072 0 0 1 -2.69958,-2.61842 4.55428,4.55428 0 0 1 1.09308,-6.52772 15.50178,15.50178 0 0 1 6.778,-2.72122 35.38071,35.38071 0 0 1 6.94949,-0.53579 z"
     id="path13" />
  <path
     class="cls-1"
     d="m 287.87257,201.92671 c -0.91333,0.0127 -1.83928,0.0127 -2.75261,0.0127 -0.91333,0 -1.83928,0 -2.75261,-0.0127 -19.03952,-0.10142 -38.38354,-0.67224 -56.57329,-6.3423 a 134.24237,134.24237 0 0 0 33.56348,24.96329 c 8.0166,4.21129 16.769,7.63615 25.76242,7.75035 8.99342,-0.1142 17.74582,-3.53906 25.76242,-7.75035 a 134.24237,134.24237 0 0 0 33.56348,-24.96329 c -18.18975,5.67006 -37.53377,6.24087 -56.57329,6.3423 z"
     id="path14" />
  <path
     class="cls-5"
     d="m 357.84096,117.70848 c -4.7,-2.61094 -9.61687,-4.45886 -15.15239,-3.4763 -3.55334,0.63076 -6.60558,1.97545 -8.37864,5.39337 a 8.37826,8.37826 0 0 1 -1.85435,2.5815 c -1.14983,0.99031 -2.14621,0.64231 -2.44922,-0.82832 a 3.72557,3.72557 0 0 1 0.13708,-1.77343 c 2.0137,-7.23549 5.64672,-11.33261 13.8972,-12.65892 4.67686,-0.75181 9.13194,0.16535 13.51529,1.66724 7.98142,2.7347 14.33749,7.70746 19.59835,14.21542 a 58.39715,58.39715 0 0 1 8.98565,15.00651 45.35509,45.35509 0 0 1 2.81554,11.60122 14.51181,14.51181 0 0 1 -2.79541,10.16367 26.51371,26.51371 0 0 1 -11.62249,9.1172 58.33034,58.33034 0 0 1 -26.22367,5.02005 c -5.49765,-0.2451 -10.64877,-1.5755 -14.80878,-5.52443 a 29.881,29.881 0 0 1 -7.36687,-11.25076 c -0.68546,-1.80342 -0.99764,-3.72354 -1.51605,-5.5784 -0.54619,-1.95447 0.20653,-3.8136 0.18918,-5.72158 a 0.92926,0.92926 0 0 1 0.8012,-1.00522 c 0.59258,-0.0596 0.763,0.43845 0.905,0.88407 q 1.18223,3.71021 2.71,7.29117 a 21.60631,21.60631 0 0 0 4.62218,6.92745 12.221,12.221 0 0 0 6.02742,3.349 34.991,34.991 0 0 0 17.94376,-0.56815 c 1.15787,-0.34322 2.0697,-0.80488 2.33534,-2.12386 a 2.69373,2.69373 0 0 1 0.7147,-1.17895 c 2.28012,-2.45675 3.79018,-5.46619 5.80335,-8.08993 a 10.90815,10.90815 0 0 0 2.38709,-8.30254 3.62828,3.62828 0 0 1 0.71363,-2.83664 2.126,2.126 0 0 0 0.14566,-2.54725 37.90626,37.90626 0 0 0 -12.07375,-15.35381 14.801,14.801 0 0 1 -2.36876,-2.13027 c -0.47958,-0.57655 -0.915,-1.2282 -0.41657,-1.98162 0.44005,-0.66529 1.13044,-0.56049 1.80684,-0.40413 a 8.63362,8.63362 0 0 0 0.97249,0.11664 z"
     id="path15" />
  <path
     class="cls-5"
     d="m 212.26088,117.41553 c 0.63875,0.42443 1.073,0.12458 1.51084,0.0658 a 1.32257,1.32257 0 0 1 1.4113,0.50942 1.3548,1.3548 0 0 1 -0.21554,1.65674 10.76965,10.76965 0 0 1 -2.28393,2.21658 56.25189,56.25189 0 0 0 -5.27706,4.86092 33.17367,33.17367 0 0 0 -7.165,10.9406 1.8886,1.8886 0 0 0 0.0975,2.05683 4.958,4.958 0 0 1 0.75574,3.23593 c -0.026,1.12934 0.0129,2.26007 0.013,3.39019 a 3.57032,3.57032 0 0 0 0.83229,2.40229 38.12231,38.12231 0 0 1 3.39546,5.158 28.11143,28.11143 0 0 0 3.06787,4.17338 6.28115,6.28115 0 0 1 1.89168,2.98732 c 0.14983,0.787 0.81258,1.0072 1.44663,1.20817 a 32.8913,32.8913 0 0 0 13.56858,1.594 c 1.25456,-0.13479 2.50015,-0.35078 3.752,-0.513 4.60113,-0.59631 7.7135,-3.359 10.1142,-7.06548 a 36.78063,36.78063 0 0 0 3.731,-8.35754 c 0.27666,-0.8188 0.521,-1.64892 0.8148,-2.46128 0.15921,-0.44015 0.38309,-0.91568 0.97194,-0.80267 a 0.87688,0.87688 0 0 1 0.66765,0.89024 c 0.129,2.42237 0.626,4.78053 -0.0217,7.2788 a 31.84216,31.84216 0 0 1 -7.9702,14.72121 19.04841,19.04841 0 0 1 -11.5688,5.73915 54.58361,54.58361 0 0 1 -35.06982,-7.29228 21.65688,21.65688 0 0 1 -7.435,-7.64572 c -2.14477,-3.48916 -2.3595,-7.28066 -1.72245,-11.18207 1.60189,-9.81038 6.20609,-18.13781 12.57644,-25.6344 a 42.51461,42.51461 0 0 1 18.21631,-12.81315 c 5.2222,-1.88286 10.55694,-2.79018 16.04312,-1.346 6.882,1.81156 9.85826,5.39831 11.71568,12.45283 0.37763,1.43431 -0.0423,2.64549 -0.80434,2.83148 -1.22371,0.29865 -1.77982,-0.69278 -2.36921,-1.45785 -0.60634,-0.787 -1.09664,-1.66412 -1.62813,-2.50784 a 9.2666,9.2666 0 0 0 -5.34364,-3.91747 19.85867,19.85867 0 0 0 -11.97231,0.251 29.92629,29.92629 0 0 0 -5.74683,2.37591 z"
     id="path16" />
  <path
     class="cls-6"
     d="m 301.25858,220.72628 c -10.79533,5.223 -21.49087,5.1066 -32.45261,-0.0333 9.6144,-6.90296 24.55154,-6.2377 32.45261,0.0333 z"
     id="path17"
     style="fill:url(#linear-gradient-2)" />
  <path
     class="cls-1"
     d="m 331.34922,202.59549 a 2.64317,2.64317 0 0 1 -1.21434,1.08114 c -5.75524,3.70931 -11.12793,8.01752 -17.08287,11.41078 -1.96278,1.11454 -4.00881,2.11253 -5.97159,3.227 a 3.38479,3.38479 0 0 1 -3.85906,-0.1663 39.05039,39.05039 0 0 0 -9.16515,-4.39136 28.69623,28.69623 0 0 0 -19.91074,0.74855 39.29222,39.29222 0 0 0 -7.25233,3.726 3.25868,3.25868 0 0 1 -3.69276,0.1331 120.051,120.051 0 0 1 -14.82069,-8.999 c -2.77782,-1.94613 -5.58894,-3.84241 -8.38341,-5.75524 -0.31605,-0.21625 -0.7319,-0.33269 -0.96479,-0.98144 9.29825,1.863 18.4968,2.41193 27.7452,2.77792 11.17789,0.4324 22.35587,0.34925 33.5172,0.14965 a 173.93353,173.93353 0 0 0 27.39586,-2.26217 c 1.16439,-0.19963 2.32878,-0.44918 3.65947,-0.69863 z"
     id="path18" />
  <path
     class="cls-1"
     d="m 247.29542,138.20443 a 32.26362,32.26362 0 0 1 -7.10223,20.208 c -5.02081,6.20127 -11.484,9.59319 -19.57287,9.34858 -5.22273,-0.15794 -9.76543,-2.27569 -13.92683,-5.34186 -10.09386,-7.43714 -11.33358,-19.05309 -8.41982,-27.9981 a 41.31048,41.31048 0 0 1 18.69046,-23.50223 c 5.19049,-3.06117 10.84777,-3.87183 16.6643,-1.52443 a 16.34838,16.34838 0 0 1 6.90922,5.55318 32.0451,32.0451 0 0 1 6.00079,14.81492 45.37452,45.37452 0 0 1 0.75698,8.44194 z"
     id="path19" />
  <path
     class="cls-1"
     d="m 373.20596,141.80658 c -0.0211,6.25931 -1.09389,11.26006 -4.49982,15.51 a 27.24023,27.24023 0 0 1 -14.87033,9.8233 c -7.46165,1.86067 -14.19841,-0.0175 -19.932,-4.86072 -7.26058,-6.13314 -10.634,-14.239 -10.87693,-23.70944 a 50.10939,50.10939 0 0 1 1.42156,-12.4398 29.0062,29.0062 0 0 1 5.45214,-11.42892 c 4.17394,-5.38423 9.72691,-7.367 16.40061,-6.29574 a 24.11079,24.11079 0 0 1 11.38409,5.43265 44.23438,44.23438 0 0 1 13.11208,17.29289 26.27507,26.27507 0 0 1 2.4086,10.67578 z"
     id="path20" />
  <path
     class="cls-5"
     d="m 313.88049,37.514401 a 50.67327,50.67327 0 0 1 17.72827,3.36127 80.269,80.269 0 0 1 20.38894,11.18229 29.89721,29.89721 0 0 1 5.75793,5.48824 12.59926,12.59926 0 0 1 2.326,4.37146 5.19579,5.19579 0 0 1 -2.67846,6.23309 12.69536,12.69536 0 0 1 -5.96012,1.40361 64.8589,64.8589 0 0 1 -13.44317,-1.55823 c -9.60746,-1.87809 -19.08944,-4.20643 -28.14809,-8.01142 a 40.76316,40.76316 0 0 1 -7.927,-4.17344 12.52741,12.52741 0 0 1 -4.263,-4.91874 7.28694,7.28694 0 0 1 0.7839,-7.896 10.678,10.678 0 0 1 4.51946,-3.49822 28.64491,28.64491 0 0 1 10.91534,-1.98391 z"
     id="path21" />
  <path
     class="cls-5"
     d="m 272.32596,48.444091 a 31.079,31.079 0 0 1 -8.3609,-0.87325 9.6248,9.6248 0 0 1 -3.79963,-1.66764 3.57061,3.57061 0 0 1 -0.48935,-5.69061 6.37993,6.37993 0 0 1 2.06632,-1.53671 c 4.19114,-1.927375 8.4846,-3.472075 13.21017,-3.147815 a 25.18984,25.18984 0 0 1 10.30767,2.746185 6.925,6.925 0 0 1 2.69951,2.29548 3.4043,3.4043 0 0 1 -0.58563,4.66621 8.01623,8.01623 0 0 1 -3.13023,1.68459 37.4632,37.4632 0 0 1 -11.91793,1.52356 z"
     id="path22" />
  <path
     class="cls-5"
     d="m 340.53568,143.0337 a 9.67821,9.67821 0 0 1 -4.26122,-0.90349 c -3.587,-1.6547 -5.976,-4.89194 -4.52218,-9.60143 1.30621,-4.23135 3.65772,-7.29684 8.27133,-7.8391 a 9.5356,9.5356 0 0 1 9.32214,3.79337 8.30961,8.30961 0 0 1 -1.66829,11.88323 11.3483,11.3483 0 0 1 -7.14178,2.66742 z"
     id="path23" />
  <path
     class="cls-5"
     d="m 229.79361,143.03884 a 11.11159,11.11159 0 0 1 -8.82257,-4.307 8.3807,8.3807 0 0 1 0.0855,-10.50706 c 3.67354,-4.6426 12.97724,-5.73576 16.546,1.9927 a 16.37539,16.37539 0 0 1 0.83495,2.23721 c 1.27766,4.34288 -0.15066,7.54591 -4.22195,9.52689 a 9.48159,9.48159 0 0 1 -4.42193,1.05726 z"
     id="path24" />
  <path
     class="cls-5"
     d="m 213.08333,144.44018 a 3.82424,3.82424 0 0 1 -3.80492,-3.81426 3.53244,3.53244 0 0 1 3.55724,-3.74773 3.57915,3.57915 0 0 1 3.79573,3.52949 3.75125,3.75125 0 0 1 -3.54805,4.0325 z"
     id="path25" />
  <path
     class="cls-5"
     d="m 361.03076,140.60741 a 3.969,3.969 0 0 1 -3.63453,3.79783 3.85411,3.85411 0 0 1 -3.834,-3.77469 3.7343029,3.7343029 0 1 1 7.46857,-0.0231 z"
     id="path26" />
</svg>
